{
  "accessors": [
    {
      "bufferView": 1,
      "componentType": 5126,
      "count": 41041,
      "max": [
        15.566136360168457,
        7.961740493774414,
        21.852909088134766
      ],
      "min": [
        -14.310246467590332,
        -13.118324279785156,
        -27.16400718688965
      ],
      "type": "VEC3"
    },
    {
      "bufferView": 1,
      "byteOffset": 492492,
      "componentType": 5126,
      "count": 41041,
      "max": [
        0.999963641166687,
        0.9999930262565613,
        0.9999891519546509
      ],
      "min": [
        -0.9999926090240479,
        -0.9999955892562866,
        -1.0
      ],
      "type": "VEC3"
    },
    {
      "bufferView": 0,
      "componentType": 5125,
      "count": 219426,
      "type": "SCALAR"
    }
  ],
  "asset": {
    "extras": {
      "author": "nimproductions (https://sketchfab.com/nimproductions)",
      "license": "CC-BY-4.0 (http://creativecommons.org/licenses/by/4.0/)",
      "source": "https://sketchfab.com/3d-models/british-artillery-gun-loader-soldier-3d-print-ac1b1dfefb654e3fa67f63804e4d9923",
      "title": "British - Artillery Gun Loader soldier 3D print"
    },
    "generator": "Sketchfab-14.55.0",
    "version": "2.0"
  },
  "bufferViews": [
    {
      "buffer": 0,
      "byteLength": 877704,
      "name": "floatBufferViews",
      "target": 34963
    },
    {
      "buffer": 0,
      "byteLength": 984984,
      "byteOffset": 877704,
      "byteStride": 12,
      "name": "floatBufferViews",
      "target": 34962
    }
  ],
  "buffers": [
    {
      "byteLength": 1862688,
      "uri": "scene.bin"
    }
  ],
  "materials": [
    {
      "doubleSided": true,
      "name": "Scene_-_Root",
      "pbrMetallicRoughness": {
        "baseColorFactor": [
          0.8464433773127846,
          0.8464433773127846,
          0.8464433773127846,
          1.0
        ],
        "metallicFactor": 0.29104850605258986,
        "roughnessFactor": 0.6
      }
    }
  ],
  "meshes": [
    {
      "name": "Object_0",
      "primitives": [
        {
          "attributes": {
            "NORMAL": 1,
            "POSITION": 0
          },
          "indices": 2,
          "material": 0,
          "mode": 4
        }
      ]
    }
  ],
  "nodes": [
    {
      "children": [
        1
      ],
      "matrix": [
        1.0,
        0.0,
        0.0,
        0.0,
        0.0,
        2.220446049250313e-16,
        -1.0,
        0.0,
        0.0,
        1.0,
        2.220446049250313e-16,
        0.0,
        0.0,
        0.0,
        0.0,
        1.0
      ],
      "name": "Sketchfab_model"
    },
    {
      "children": [
        2
      ],
      "name": "British Gun Loader.stl.cleaner.materialmerger.gles"
    },
    {
      "mesh": 0,
      "name": "Object_2"
    }
  ],
  "scene": 0,
  "scenes": [
    {
      "name": "Sketchfab_Scene",
      "nodes": [
        0
      ]
    }
  ]
}
